<?xml version="1.0" standalone="no"?>
<!DOCTYPE svg PUBLIC "-//W3C//DTD SVG 20010904//EN"
 "http://www.w3.org/TR/2001/REC-SVG-20010904/DTD/svg10.dtd">
<svg version="1.0" xmlns="http://www.w3.org/2000/svg"
 width="177.000000pt" height="177.000000pt" viewBox="0 0 177.000000 177.000000"
 preserveAspectRatio="xMidYMid meet">
<metadata>
Created by potrace 1.11, written by Peter Selinger 2001-2013
</metadata>
<g transform="translate(0.000000,177.000000) scale(0.100000,-0.100000)"
fill="#000000" stroke="none">
<path d="M1014 1551 c-5 -5 -38 -24 -74 -44 -36 -19 -157 -86 -270 -149 -113
-63 -250 -140 -305 -171 -55 -30 -125 -69 -155 -86 -30 -17 -89 -50 -131 -73
l-76 -42 1 -145 1 -145 110 -68 c61 -38 117 -72 125 -75 8 -4 134 -78 278
-165 145 -88 267 -158 272 -156 4 2 186 118 404 258 218 140 433 279 478 308
46 29 84 56 86 60 1 4 -18 23 -42 42 -28 22 -46 45 -48 63 -4 24 1 30 47 56
47 26 52 33 51 63 -1 33 -5 36 -331 232 -434 261 -410 247 -421 237z"/>
</g>
</svg>
